<svg width="16" height="16" viewBox="0 0 16 16" fill="none" xmlns="http://www.w3.org/2000/svg">
    <path d="M14.4815 0H7.53705C6.92438 0 6.42592 0.498452 6.42592 1.11111V1.2963H5.2963C4.8308 1.2963 4.43259 1.58904 4.27548 2H2.11111C1.49845 2 1 2.49845 1 3.11111V14.8889C1 15.5015 1.49845 16 2.11111 16H11.963C12.5756 16 13.0741 15.5015 13.0741 14.8889V14H14.4815C15.0942 14 15.5926 13.5015 15.5926 12.8889V1.11111C15.5926 0.498452 15.0942 0 14.4815 0ZM5.2963 2.03704H8.77781C8.97182 2.03704 9.12965 2.19488 9.12965 2.38888C9.12965 2.5829 8.97181 2.74073 8.77781 2.74073H5.2963C5.10228 2.74073 4.94446 2.58288 4.94446 2.38888C4.94444 2.19488 5.10228 2.03704 5.2963 2.03704ZM12.3333 14.8889C12.3333 15.0931 12.1672 15.2593 11.963 15.2593H2.11111C1.90689 15.2593 1.74074 15.0931 1.74074 14.8889V3.11111C1.74074 2.90691 1.90689 2.74074 2.11111 2.74074H4.26216C4.40897 3.17104 4.81693 3.48149 5.29628 3.48149H8.77779C9.25716 3.48149 9.6651 3.17104 9.81191 2.74074H11.963C12.1672 2.74074 12.3333 2.90691 12.3333 3.11111V14.8889H12.3333ZM14.8519 12.8889C14.8519 13.0931 14.6857 13.2593 14.4815 13.2593H13.0741V3.11111C13.0741 2.49845 12.5756 2 11.963 2H9.79861C9.64151 1.58904 9.24331 1.2963 8.77779 1.2963H7.16665V1.11111C7.16665 0.906886 7.33281 0.740741 7.53705 0.740741H14.4815C14.6857 0.740741 14.8519 0.906886 14.8519 1.11111V12.8889Z" fill="white"/>
    <path d="M10.2411 4.81677H3.79672C3.59216 4.81677 3.42635 4.98261 3.42635 5.18714C3.42635 5.39168 3.59216 5.55751 3.79672 5.55751H10.2412C10.4457 5.55751 10.6115 5.39168 10.6115 5.18714C10.6115 4.98261 10.4457 4.81677 10.2411 4.81677Z" fill="white"/>
    <path d="M10.2411 6.9649H3.79672C3.59216 6.9649 3.42635 7.13074 3.42635 7.33528C3.42635 7.53981 3.59216 7.70565 3.79672 7.70565H10.2412C10.4457 7.70565 10.6115 7.53981 10.6115 7.33528C10.6115 7.13076 10.4457 6.9649 10.2411 6.9649Z" fill="white"/>
    <path d="M7.01894 9.11304H3.79672C3.59216 9.11304 3.42635 9.27887 3.42635 9.48341C3.42635 9.68794 3.59216 9.85378 3.79672 9.85378H7.01894C7.22348 9.85378 7.38931 9.68794 7.38931 9.48341C7.38931 9.27887 7.22346 9.11304 7.01894 9.11304Z" fill="white"/>
</svg>
