<svg width="26" height="26" viewBox="0 0 26 26" fill="none" xmlns="http://www.w3.org/2000/svg">
    <g clip-path="url(#clip0_6_67)">
        <path d="M24.9993 13.0023C24.9993 6.38686 19.6324 1.02399 13.0121 1.02399C6.39163 1.02399 1.02468 6.38688 1.02468 13.0023C1.02468 19.1133 5.60416 24.1551 11.5209 24.8888C11.8544 24.9591 12.2607 25 12.7445 25C12.8804 25 13.0114 24.9929 13.1379 24.9799C19.7003 24.9125 24.9993 19.576 24.9993 13.0023ZM23.2852 13.1718C23.2507 12.5741 23.1718 11.9891 23.0515 11.4206C23.0622 11.2175 23.0651 11.0252 23.0597 10.8464C23.2084 11.5416 23.2868 12.2628 23.2868 13.0023C23.2867 13.0588 23.2862 13.1153 23.2852 13.1718ZM2.73721 13.0023C2.73721 12.2763 2.8128 11.5679 2.95624 10.8844C3.39995 11.359 4.44578 11.3478 4.70083 10.6388C5.15718 10.9107 5.77045 10.9603 5.77045 11.5039C5.77045 13.298 5.83434 15.2215 7.46451 15.2512C7.5104 15.2518 8.3736 15.5784 8.78442 16.6438C8.92645 17.012 9.48831 16.6438 10.1045 16.6438C10.4121 16.6438 10.1045 17.162 10.1045 18.2826C10.1045 19.3988 12.511 21.1176 12.511 21.1176C12.4999 21.8565 12.5302 22.4539 12.5917 22.9313C12.0485 22.9212 11.5907 22.9932 11.2311 23.1157C6.40532 22.2729 2.73719 18.0659 2.73719 13.0023L2.73721 13.0023ZM15.5416 22.9559C15.4883 22.6951 15.2553 22.5523 14.8301 22.664C15.1694 21.2194 15.3343 20.4101 16.0425 19.7956C17.0672 18.9073 16.1645 17.9196 15.3848 18.036C14.7702 18.1288 15.1586 17.275 14.61 17.2278C14.0615 17.1819 13.3451 16.0908 12.5556 15.7154C12.1372 15.5166 11.7259 14.984 11.0805 14.9602C10.5085 14.938 9.67246 15.4439 9.67246 15.0539C9.67246 13.7979 9.54527 12.9016 9.51913 12.5437C9.49804 12.2561 9.33117 12.4468 10.1045 12.4654C10.5253 12.4767 10.3198 11.6201 10.7363 11.5866C11.1455 11.5542 12.1204 11.9696 12.3688 11.804C12.5995 11.6499 14.065 15.6508 14.065 12.4654C14.065 12.0874 13.8692 11.4303 14.065 11.0723C14.8391 9.65782 15.5638 8.505 15.4987 8.33637C15.4618 8.24142 14.7067 8.16303 14.1026 8.36574C13.8987 8.43382 14.1674 8.75316 13.8746 8.82136C12.7774 9.07467 11.808 8.52553 12.1475 8.00937C12.4951 7.48039 13.7546 7.7786 13.865 6.71738C13.9285 6.1095 13.9812 5.40549 14.0164 4.88224C15.4931 5.11317 15.3305 2.96583 13.1348 2.73598C17.5769 2.78794 21.341 5.65667 22.7223 9.63802C22.6524 9.57429 22.5711 9.53557 22.4772 9.5261C21.8134 7.8679 20.2021 9.06795 20.7487 10.5305C17.8199 12.7819 18.5696 14.3521 19.5318 15.2512C20.0382 15.7239 20.5209 16.4348 20.8352 16.9453C20.4931 17.9428 22.0957 17.5434 22.8861 15.8505C21.8807 19.3372 19.0761 22.0617 15.5416 22.9559Z" fill="white"/>
    </g>
    <defs>
        <clipPath id="clip0_6_67">
            <rect width="24" height="24" fill="white" transform="translate(1 1)"/>
        </clipPath>
    </defs>
</svg>
