<svg width="86" height="100" viewBox="0 0 86 100" fill="none" xmlns="http://www.w3.org/2000/svg">
    <path opacity="0.2" d="M8.72259 -9.57867H70.8131C70.99 -9.26489 71.1605 -8.95633 71.3342 -8.66085C71.733 -7.9836 72.1286 -7.35603 72.5242 -6.7703C73.2736 -5.58576 73.9779 -4.55028 74.7145 -3.62723C74.901 -3.39712 75.0811 -3.17224 75.2612 -2.95259C75.4349 -2.73032 75.6054 -2.51329 75.7694 -2.30149C76.1103 -1.87788 76.4545 -1.47257 76.7986 -1.08034C77.4805 -0.293264 78.2138 0.433672 78.8442 1.19721C79.4971 1.95553 80.15 2.72168 80.8029 3.55583C80.9637 3.76502 81.1245 3.97944 81.2918 4.19647C81.4462 4.41612 81.5877 4.64362 81.7356 4.87634C82.0283 5.34179 82.3178 5.83077 82.604 6.35113C82.8903 6.87149 83.1701 7.42322 83.4467 8.01418C83.7201 8.60515 83.9259 9.24579 84.1511 9.92566C84.3698 10.6081 84.5821 11.3351 84.7783 12.1169C84.8876 12.5065 84.9648 12.9118 85.0227 13.3302C85.0902 13.7512 85.1513 14.1827 85.2092 14.6324C85.325 15.5293 85.4086 16.3713 85.4633 17.1662C85.473 17.9638 85.4505 18.7116 85.4086 19.4176C85.3668 20.1237 85.3025 20.7852 85.2221 21.4128C85.1578 22.0377 84.9777 22.6287 84.8426 23.1883C84.5435 24.3075 84.1961 25.3037 83.823 26.2372C83.4242 27.1681 82.9417 28.031 82.4947 28.8861C82.0283 29.7385 81.6134 30.5858 81.1245 31.4722C80.6292 32.356 80.15 33.2869 79.7094 34.3198C79.4778 34.8349 79.3009 35.3814 79.0533 35.9489C78.812 36.5189 78.5772 37.1203 78.3553 37.7636C78.1334 38.4068 77.9211 39.0893 77.7217 39.8215C77.6316 40.1902 77.503 40.5615 77.3808 40.9485C77.2586 41.3355 77.1396 41.733 77.0238 42.1487C76.789 42.975 76.596 43.7569 76.4352 44.4969C76.3966 44.6825 76.358 44.8656 76.3194 45.0434C76.2712 45.2212 76.2261 45.3964 76.1811 45.569C76.0943 45.9141 76.0138 46.2515 75.9399 46.5809C75.6472 47.8962 75.4928 49.0834 75.3963 50.1868C75.2419 51.272 75.1744 52.2761 75.1487 53.2462C75.1358 53.73 75.1326 54.2059 75.1358 54.6792C75.1422 55.1525 75.1487 55.6232 75.1133 56.0808C75.0683 57.0064 75.02 57.9399 74.9171 58.9257C74.811 59.9089 74.6887 60.9575 74.3317 62.0531C74.0037 63.1592 73.5695 64.3542 72.9712 65.68C72.328 66.9848 71.4499 68.389 70.3853 69.9631C70.2503 70.1592 70.1152 70.3501 69.9865 70.541C69.8386 70.724 69.6971 70.9019 69.5555 71.0797C69.2693 71.4327 68.9863 71.77 68.7064 72.0942C68.1468 72.7427 67.6032 73.3415 67.0726 73.8933C66.8056 74.1678 66.5451 74.4345 66.2846 74.6882C66.008 74.9314 65.7314 75.1667 65.4612 75.389C64.9176 75.8387 64.3902 76.2493 63.8756 76.631C61.8525 78.1817 59.823 79.123 57.8836 80.0696C57.4012 80.3049 56.9187 80.5377 56.4266 80.7782C55.9281 81.0031 55.4199 81.2332 54.8957 81.4686C53.8665 81.9445 52.8212 82.4674 51.7308 83.0924C51.2002 83.414 50.5955 83.7147 50.0005 84.0625C49.399 84.4077 48.7847 84.7842 48.1479 85.1974C47.8295 85.4039 47.5046 85.621 47.1766 85.8458C46.8517 86.076 46.514 86.3113 46.1506 86.5388C45.4333 87.0042 44.6904 87.5115 43.912 88.0711C42.3907 89.2164 41.0013 90.1656 39.837 91.0991C39.2516 91.5646 38.7177 92.0169 38.2192 92.4641C37.7014 92.8851 37.2189 93.293 36.7687 93.6983C35.8713 94.5089 35.0994 95.296 34.3854 96.0752C33.6424 96.8178 32.9509 97.5448 32.253 98.2822C31.8992 98.6509 31.5486 99.017 31.1884 99.3909C30.825 99.7622 30.4583 100.144 30.0402 100.492C29.22 101.206 28.3195 101.933 27.2677 102.68C26.8625 102.958 26.4476 103.264 25.9909 103.543H-2.63414L8.72259 -9.57867Z" fill="url(#paint0_linear_11_193)"/>
    <path opacity="0.5" d="M-4.69901 -9.57867H57.3915C57.5684 -9.26489 57.7389 -8.95633 57.9126 -8.66085C58.3114 -7.9836 58.707 -7.35603 59.1026 -6.7703C59.852 -5.58576 60.5563 -4.55028 61.2929 -3.62723C61.4794 -3.39712 61.6595 -3.17224 61.8397 -2.95259C62.0133 -2.73032 62.1838 -2.51329 62.3478 -2.30149C62.6888 -1.87788 63.0329 -1.47257 63.377 -1.08034C64.0589 -0.293264 64.7922 0.433672 65.4226 1.19721C66.0755 1.95553 66.7284 2.72168 67.3813 3.55583C67.5421 3.76502 67.7029 3.97944 67.8702 4.19647C68.0246 4.41612 68.1661 4.64362 68.314 4.87634C68.6067 5.34179 68.8962 5.83077 69.1824 6.35113C69.4687 6.87149 69.7485 7.42322 70.0251 8.01418C70.2985 8.60515 70.5043 9.24579 70.7295 9.92566C70.9482 10.6081 71.1605 11.3351 71.3567 12.1169C71.466 12.5065 71.5432 12.9118 71.6011 13.3302C71.6686 13.7512 71.7298 14.1827 71.7876 14.6324C71.9034 15.5293 71.987 16.3713 72.0417 17.1662C72.0514 17.9638 72.0289 18.7116 71.9871 19.4176C71.9452 20.1237 71.8809 20.7852 71.8005 21.4128C71.7362 22.0377 71.5561 22.6287 71.421 23.1883C71.1219 24.3075 70.7745 25.3037 70.4014 26.2372C70.0026 27.1681 69.5202 28.031 69.0731 28.8861C68.6067 29.7385 68.1918 30.5858 67.7029 31.4722C67.2076 32.356 66.7284 33.2869 66.2878 34.3198C66.0562 34.8349 65.8793 35.3814 65.6317 35.9489C65.3904 36.5189 65.1556 37.1203 64.9337 37.7636C64.7118 38.4068 64.4995 39.0893 64.3001 39.8215C64.2101 40.1902 64.0814 40.5615 63.9592 40.9485C63.837 41.3355 63.718 41.733 63.6022 42.1487C63.3674 42.975 63.1744 43.7569 63.0136 44.4969C62.975 44.6825 62.9364 44.8656 62.8978 45.0434C62.8496 45.2212 62.8045 45.3964 62.7595 45.569C62.6727 45.9141 62.5923 46.2515 62.5183 46.5809C62.2256 47.8962 62.0712 49.0834 61.9747 50.1868C61.8204 51.272 61.7528 52.2761 61.7271 53.2462C61.7142 53.73 61.711 54.2059 61.7142 54.6792C61.7206 55.1525 61.7271 55.6232 61.6917 56.0808C61.6467 57.0064 61.5984 57.9399 61.4955 58.9257C61.3894 59.9089 61.2672 60.9575 60.9101 62.0531C60.5821 63.1592 60.1479 64.3542 59.5496 65.68C58.9064 66.9848 58.0283 68.389 56.9637 69.9631C56.8287 70.1592 56.6936 70.3501 56.5649 70.541C56.417 70.724 56.2755 70.9019 56.1339 71.0797C55.8477 71.4327 55.5647 71.77 55.2848 72.0942C54.7252 72.7427 54.1817 73.3415 53.651 73.8933C53.384 74.1678 53.1235 74.4345 52.863 74.6882C52.5864 74.9314 52.3098 75.1667 52.0396 75.389C51.4961 75.8387 50.9686 76.2493 50.454 76.631C48.4309 78.1817 46.4014 79.123 44.462 80.0696C43.9796 80.3049 43.4971 80.5377 43.005 80.7782C42.5065 81.0031 41.9983 81.2332 41.4741 81.4686C40.4449 81.9445 39.3996 82.4674 38.3093 83.0924C37.7786 83.414 37.1739 83.7147 36.5789 84.0625C35.9774 84.4077 35.3631 84.7842 34.7263 85.1974C34.4079 85.4039 34.083 85.621 33.755 85.8458C33.4301 86.076 33.0924 86.3113 32.729 86.5388C32.0118 87.0042 31.2688 87.5115 30.4904 88.0711C28.9691 89.2164 27.5797 90.1656 26.4154 91.0991C25.83 91.5646 25.2961 92.0169 24.7976 92.4641C24.2798 92.8851 23.7973 93.293 23.3471 93.6983C22.4497 94.5089 21.6778 95.296 20.9638 96.0752C20.2208 96.8178 19.5293 97.5448 18.8314 98.2822C18.4776 98.6509 18.127 99.017 17.7668 99.3909C17.4034 99.7622 17.0367 100.144 16.6186 100.492C15.7984 101.206 14.8979 101.933 13.8461 102.68C13.4409 102.958 13.026 103.264 12.5693 103.543H-4.69901V-9.57867Z" fill="url(#paint1_linear_11_193)"/>
    <path d="M-9.27901 -9.57867H52.8115C52.9884 -9.26489 53.1589 -8.95633 53.3326 -8.66085C53.7314 -7.9836 54.127 -7.35603 54.5226 -6.7703C55.272 -5.58576 55.9763 -4.55028 56.7129 -3.62723C56.8994 -3.39712 57.0795 -3.17224 57.2597 -2.95259C57.4333 -2.73032 57.6038 -2.51329 57.7678 -2.30149C58.1087 -1.87788 58.4529 -1.47257 58.797 -1.08034C59.4789 -0.293264 60.2122 0.433672 60.8426 1.19721C61.4955 1.95553 62.1484 2.72168 62.8013 3.55583C62.9621 3.76502 63.1229 3.97944 63.2902 4.19647C63.4446 4.41612 63.5861 4.64362 63.734 4.87634C64.0267 5.34179 64.3162 5.83077 64.6024 6.35113C64.8887 6.87149 65.1685 7.42322 65.4451 8.01418C65.7185 8.60515 65.9243 9.24579 66.1495 9.92566C66.3682 10.6081 66.5805 11.3351 66.7767 12.1169C66.886 12.5065 66.9632 12.9118 67.0211 13.3302C67.0886 13.7512 67.1497 14.1827 67.2076 14.6324C67.3234 15.5293 67.4071 16.3713 67.4617 17.1662C67.4714 17.9638 67.4489 18.7116 67.4071 19.4176C67.3652 20.1237 67.3009 20.7852 67.2205 21.4128C67.1562 22.0377 66.9761 22.6287 66.841 23.1883C66.5419 24.3075 66.1945 25.3037 65.8214 26.2372C65.4226 27.1681 64.9402 28.031 64.4931 28.8861C64.0267 29.7385 63.6118 30.5858 63.1229 31.4722C62.6276 32.356 62.1484 33.2869 61.7078 34.3198C61.4762 34.8349 61.2993 35.3814 61.0517 35.9489C60.8104 36.5189 60.5756 37.1203 60.3537 37.7636C60.1318 38.4068 59.9195 39.0893 59.7201 39.8215C59.6301 40.1902 59.5014 40.5615 59.3792 40.9485C59.257 41.3355 59.138 41.733 59.0222 42.1487C58.7874 42.975 58.5944 43.7569 58.4336 44.4969C58.395 44.6825 58.3564 44.8656 58.3178 45.0434C58.2696 45.2212 58.2245 45.3964 58.1795 45.569C58.0927 45.9141 58.0123 46.2515 57.9383 46.5809C57.6456 47.8962 57.4912 49.0834 57.3947 50.1868C57.2403 51.272 57.1728 52.2761 57.1471 53.2462C57.1342 53.73 57.131 54.2059 57.1342 54.6792C57.1406 55.1525 57.1471 55.6232 57.1117 56.0808C57.0667 57.0064 57.0184 57.9399 56.9155 58.9257C56.8094 59.9089 56.6871 60.9575 56.3301 62.0531C56.0021 63.1592 55.5679 64.3542 54.9697 65.68C54.3264 66.9848 53.4483 68.389 52.3837 69.9631C52.2487 70.1592 52.1136 70.3501 51.9849 70.541C51.837 70.724 51.6955 70.9019 51.5539 71.0797C51.2677 71.4327 50.9847 71.77 50.7048 72.0942C50.1452 72.7427 49.6017 73.3415 49.071 73.8933C48.804 74.1678 48.5435 74.4345 48.283 74.6882C48.0064 74.9314 47.7298 75.1667 47.4596 75.389C46.9161 75.8387 46.3886 76.2493 45.874 76.631C43.8509 78.1817 41.8214 79.123 39.882 80.0696C39.3996 80.3049 38.9171 80.5377 38.425 80.7782C37.9265 81.0031 37.4183 81.2332 36.8941 81.4686C35.8649 81.9445 34.8196 82.4674 33.7293 83.0924C33.1986 83.414 32.5939 83.7147 31.9989 84.0625C31.3974 84.4077 30.7831 84.7842 30.1463 85.1974C29.8279 85.4039 29.503 85.621 29.175 85.8458C28.8501 86.076 28.5124 86.3113 28.149 86.5388C27.4318 87.0042 26.6888 87.5115 25.9104 88.0711C24.3891 89.2164 22.9997 90.1656 21.8354 91.0991C21.25 91.5646 20.7161 92.0169 20.2176 92.4641C19.6998 92.8851 19.2173 93.293 18.7671 93.6983C17.8697 94.5089 17.0978 95.296 16.3838 96.0752C15.6408 96.8178 14.9493 97.5448 14.2514 98.2822C13.8976 98.6509 13.547 99.017 13.1868 99.3909C12.8234 99.7622 12.4567 100.144 12.0386 100.492C11.2184 101.206 10.3179 101.933 9.26613 102.68C8.86088 102.958 8.44598 103.264 7.98927 103.543H-9.27901V-9.57867Z" fill="url(#paint2_linear_11_193)"/>
    <defs>
        <linearGradient id="paint0_linear_11_193" x1="67.2489" y1="73.9366" x2="3.07903" y2="-4.9923" gradientUnits="userSpaceOnUse">
            <stop stop-color="#42ABE8"/>
            <stop offset="1" stop-color="#24126A"/>
        </linearGradient>
        <linearGradient id="paint1_linear_11_193" x1="56.6661" y1="71.6282" x2="-7.50374" y2="-7.30073" gradientUnits="userSpaceOnUse">
            <stop stop-color="#42ABE8"/>
            <stop offset="1" stop-color="#24126A"/>
        </linearGradient>
        <linearGradient id="paint2_linear_11_193" x1="52.0868" y1="71.6282" x2="-12.0831" y2="-7.30074" gradientUnits="userSpaceOnUse">
            <stop stop-color="#42ABE8"/>
            <stop offset="1" stop-color="#24126A"/>
        </linearGradient>
    </defs>
</svg>
