<svg width="146" height="32" viewBox="0 0 146 32" fill="none" xmlns="http://www.w3.org/2000/svg">
    <g clip-path="url(#clip0_104_1840)">
        <path d="M44.1782 22H41L46.6033 10H50.5346L55.9707 22H52.6253L51.455 19.4702H45.3502L44.1782 22ZM46.1845 17.4589H50.6174L48.5267 12.3349H48.4423L46.1845 17.4589Z" fill="white"/>
        <path d="M62.0755 22L56.3878 10H59.9848L63.999 19.4702H64.0834L68.0975 10H71.3602L65.6725 22H62.0755Z" fill="white"/>
        <path d="M74.9572 22H71.779L77.3822 10H81.3136L86.7497 22H83.4043L82.234 19.4702H76.1292L74.9572 22ZM76.9634 17.4589H81.3964L79.3057 12.3349H79.2213L76.9634 17.4589Z" fill="white"/>
        <path d="M22.6683 14.5486C22.1261 15.2176 21.3123 15.8425 20.8933 15.9328C21.5281 14.9929 20.3027 12.7822 20.3027 12.7822L16.597 6.46827L12.8912 12.7822C12.8912 12.7822 11.6289 15.0926 12.3659 15.9328C11.8395 15.7228 11.1025 15.1976 10.5572 14.4867C9.7413 13.4249 9.64971 12.0176 10.3193 10.8592L16.597 0L22.941 11.0346C23.5831 12.151 23.4789 13.5488 22.6683 14.5486Z" fill="#036EB8" stroke="white" stroke-miterlimit="10"/>
        <path d="M27.0583 14.0571C26.1224 13.2127 25.0823 12.4251 24.358 12.3106C25.4529 13.4973 22.9757 16.2878 22.9757 16.2878L16.5822 24.2568L10.1887 16.2878C10.1887 16.2878 7.64838 13.3713 8.91907 12.3106C8.01053 12.5753 7.10304 13.239 6.16081 14.1348C4.75325 15.476 5.4365 17.0408 6.59245 18.5037L16.5811 32L26.3698 18.2821C27.4784 16.8738 28.4575 15.3195 27.0583 14.0571Z" fill="#171C61" stroke="white" stroke-miterlimit="10"/>
        <path d="M11.352 28.8504H0L6.04502 18.6171C6.04502 18.6171 5.11121 20.1284 5.43336 20.9738C6.24399 23.0984 11.352 28.8504 11.352 28.8504Z" fill="url(#paint0_linear_104_1840)" stroke="white" stroke-miterlimit="10"/>
        <path d="M22.1082 28.8504H33.4603L27.4152 18.6171C27.4152 18.6171 28.349 20.1284 28.0269 20.9738C27.2163 23.0984 22.1082 28.8504 22.1082 28.8504Z" fill="url(#paint1_linear_104_1840)" stroke="white" stroke-miterlimit="10"/>
    </g>
    <defs>
        <linearGradient id="paint0_linear_104_1840" x1="5.67621" y1="19.2672" x2="5.67621" y2="30.2552" gradientUnits="userSpaceOnUse">
            <stop offset="0.1125" stop-color="#036EB8"/>
            <stop offset="0.9994" stop-color="#171C61"/>
        </linearGradient>
        <linearGradient id="paint1_linear_104_1840" x1="27.7844" y1="18.6167" x2="27.7844" y2="28.8499" gradientUnits="userSpaceOnUse">
            <stop offset="0.1125" stop-color="#036EB8"/>
            <stop offset="0.9994" stop-color="#171C61"/>
        </linearGradient>
        <clipPath id="clip0_104_1840">
            <rect width="146" height="32" fill="white"/>
        </clipPath>
    </defs>
</svg>
