<svg width="104" height="18" viewBox="0 0 104 18" fill="none" xmlns="http://www.w3.org/2000/svg">
    <g filter="url(#filter0_i_13_833)">
        <path fill-rule="evenodd" clip-rule="evenodd" d="M104 13.9581L102.874 12.2535H54.4622L51.7414 15.549H22L23.4073 17.2535H52.5858L55.4005 13.8445L104 13.9581Z" fill="url(#paint0_linear_13_833)"/>
        <path fill-rule="evenodd" clip-rule="evenodd" d="M2.79801 1.73514H40.3168L51.636 12.7657H53.7981L40.6984 0H0L2.79801 1.73514Z" fill="url(#paint1_linear_13_833)"/>
        <path fill-rule="evenodd" clip-rule="evenodd" d="M42.5794 13.6775H47.4153L36.7501 2.7355H31.9142L42.5794 13.6775Z" fill="url(#paint2_linear_13_833)"/>
        <path fill-rule="evenodd" clip-rule="evenodd" d="M35.2847 13.6775H40.1207L29.4554 2.7355H24.6195L35.2847 13.6775Z" fill="url(#paint3_linear_13_833)"/>
        <path fill-rule="evenodd" clip-rule="evenodd" d="M27.99 13.6775H32.826L22.1608 2.7355H17.3248L27.99 13.6775Z" fill="url(#paint4_linear_13_833)"/>
        <path fill-rule="evenodd" clip-rule="evenodd" d="M20.6954 13.6775H25.5313L14.8661 2.7355H10.0302L20.6954 13.6775Z" fill="url(#paint5_linear_13_833)"/>
        <path fill-rule="evenodd" clip-rule="evenodd" d="M49.3991 7.25355H102.18L104 3.25355H47L49.3991 7.25355Z" fill="url(#paint6_linear_13_833)"/>
    </g>
    <defs>
        <filter id="filter0_i_13_833" x="0" y="0" width="104" height="21.2535" filterUnits="userSpaceOnUse" color-interpolation-filters="sRGB">
            <feFlood flood-opacity="0" result="BackgroundImageFix"/>
            <feBlend mode="normal" in="SourceGraphic" in2="BackgroundImageFix" result="shape"/>
            <feColorMatrix in="SourceAlpha" type="matrix" values="0 0 0 0 0 0 0 0 0 0 0 0 0 0 0 0 0 0 127 0" result="hardAlpha"/>
            <feOffset dy="4"/>
            <feGaussianBlur stdDeviation="3"/>
            <feComposite in2="hardAlpha" operator="arithmetic" k2="-1" k3="1"/>
            <feColorMatrix type="matrix" values="0 0 0 0 0.247059 0 0 0 0 0.929412 0 0 0 0 0.913725 0 0 0 1 0"/>
            <feBlend mode="normal" in2="shape" result="effect1_innerShadow_13_833"/>
        </filter>
        <linearGradient id="paint0_linear_13_833" x1="17" y1="-4.74622" x2="17" y2="17.2538" gradientUnits="userSpaceOnUse">
            <stop stop-color="#11E2F9"/>
            <stop offset="1" stop-color="#0270F9"/>
        </linearGradient>
        <linearGradient id="paint1_linear_13_833" x1="17" y1="-4.74622" x2="17" y2="17.2538" gradientUnits="userSpaceOnUse">
            <stop stop-color="#11E2F9"/>
            <stop offset="1" stop-color="#0270F9"/>
        </linearGradient>
        <linearGradient id="paint2_linear_13_833" x1="17" y1="-4.74622" x2="17" y2="17.2538" gradientUnits="userSpaceOnUse">
            <stop stop-color="#11E2F9"/>
            <stop offset="1" stop-color="#0270F9"/>
        </linearGradient>
        <linearGradient id="paint3_linear_13_833" x1="17" y1="-4.74622" x2="17" y2="17.2538" gradientUnits="userSpaceOnUse">
            <stop stop-color="#11E2F9"/>
            <stop offset="1" stop-color="#0270F9"/>
        </linearGradient>
        <linearGradient id="paint4_linear_13_833" x1="17" y1="-4.74622" x2="17" y2="17.2538" gradientUnits="userSpaceOnUse">
            <stop stop-color="#11E2F9"/>
            <stop offset="1" stop-color="#0270F9"/>
        </linearGradient>
        <linearGradient id="paint5_linear_13_833" x1="17" y1="-4.74622" x2="17" y2="17.2538" gradientUnits="userSpaceOnUse">
            <stop stop-color="#11E2F9"/>
            <stop offset="1" stop-color="#0270F9"/>
        </linearGradient>
        <linearGradient id="paint6_linear_13_833" x1="17" y1="-4.74622" x2="17" y2="17.2538" gradientUnits="userSpaceOnUse">
            <stop stop-color="#11E2F9"/>
            <stop offset="1" stop-color="#0270F9"/>
        </linearGradient>
    </defs>
</svg>
