<svg width="104" height="18" viewBox="0 0 104 18" fill="none" xmlns="http://www.w3.org/2000/svg">
<g filter="url(#filter0_i_13_836)">
<path fill-rule="evenodd" clip-rule="evenodd" d="M0 13.9581L1.12585 12.2535H49.5378L52.2586 15.549H82L80.5927 17.2535H51.4142L48.5995 13.8445L0 13.9581Z" fill="url(#paint0_linear_13_836)"/>
<path fill-rule="evenodd" clip-rule="evenodd" d="M101.202 1.73514H63.6832L52.364 12.7657H50.2019L63.3016 0H104L101.202 1.73514Z" fill="url(#paint1_linear_13_836)"/>
<path fill-rule="evenodd" clip-rule="evenodd" d="M61.4206 13.6775H56.5847L67.2499 2.7355H72.0858L61.4206 13.6775Z" fill="url(#paint2_linear_13_836)"/>
<path fill-rule="evenodd" clip-rule="evenodd" d="M68.7153 13.6775H63.8793L74.5446 2.7355H79.3805L68.7153 13.6775Z" fill="url(#paint3_linear_13_836)"/>
<path fill-rule="evenodd" clip-rule="evenodd" d="M76.01 13.6775H71.174L81.8392 2.7355H86.6752L76.01 13.6775Z" fill="url(#paint4_linear_13_836)"/>
<path fill-rule="evenodd" clip-rule="evenodd" d="M83.3046 13.6775H78.4687L89.1339 2.7355H93.9698L83.3046 13.6775Z" fill="url(#paint5_linear_13_836)"/>
<path fill-rule="evenodd" clip-rule="evenodd" d="M54.6009 7.25355H1.82003L0 3.25355H57L54.6009 7.25355Z" fill="url(#paint6_linear_13_836)"/>
</g>
<defs>
<filter id="filter0_i_13_836" x="0" y="0" width="104" height="21.2535" filterUnits="userSpaceOnUse" color-interpolation-filters="sRGB">
<feFlood flood-opacity="0" result="BackgroundImageFix"/>
<feBlend mode="normal" in="SourceGraphic" in2="BackgroundImageFix" result="shape"/>
<feColorMatrix in="SourceAlpha" type="matrix" values="0 0 0 0 0 0 0 0 0 0 0 0 0 0 0 0 0 0 127 0" result="hardAlpha"/>
<feOffset dy="4"/>
<feGaussianBlur stdDeviation="3"/>
<feComposite in2="hardAlpha" operator="arithmetic" k2="-1" k3="1"/>
<feColorMatrix type="matrix" values="0 0 0 0 0.247059 0 0 0 0 0.929412 0 0 0 0 0.913725 0 0 0 1 0"/>
<feBlend mode="normal" in2="shape" result="effect1_innerShadow_13_836"/>
</filter>
<linearGradient id="paint0_linear_13_836" x1="87" y1="-4.74622" x2="87" y2="17.2538" gradientUnits="userSpaceOnUse">
<stop stop-color="#11E2F9"/>
<stop offset="1" stop-color="#0270F9"/>
</linearGradient>
<linearGradient id="paint1_linear_13_836" x1="87" y1="-4.74622" x2="87" y2="17.2538" gradientUnits="userSpaceOnUse">
<stop stop-color="#11E2F9"/>
<stop offset="1" stop-color="#0270F9"/>
</linearGradient>
<linearGradient id="paint2_linear_13_836" x1="87" y1="-4.74622" x2="87" y2="17.2538" gradientUnits="userSpaceOnUse">
<stop stop-color="#11E2F9"/>
<stop offset="1" stop-color="#0270F9"/>
</linearGradient>
<linearGradient id="paint3_linear_13_836" x1="87" y1="-4.74622" x2="87" y2="17.2538" gradientUnits="userSpaceOnUse">
<stop stop-color="#11E2F9"/>
<stop offset="1" stop-color="#0270F9"/>
</linearGradient>
<linearGradient id="paint4_linear_13_836" x1="87" y1="-4.74622" x2="87" y2="17.2538" gradientUnits="userSpaceOnUse">
<stop stop-color="#11E2F9"/>
<stop offset="1" stop-color="#0270F9"/>
</linearGradient>
<linearGradient id="paint5_linear_13_836" x1="87" y1="-4.74622" x2="87" y2="17.2538" gradientUnits="userSpaceOnUse">
<stop stop-color="#11E2F9"/>
<stop offset="1" stop-color="#0270F9"/>
</linearGradient>
<linearGradient id="paint6_linear_13_836" x1="87" y1="-4.74622" x2="87" y2="17.2538" gradientUnits="userSpaceOnUse">
<stop stop-color="#11E2F9"/>
<stop offset="1" stop-color="#0270F9"/>
</linearGradient>
</defs>
</svg>
